<svg width="40" height="40" viewBox="0 0 40 40" fill="none" xmlns="http://www.w3.org/2000/svg">
<path d="M24.73 28.146C24.7972 28.1461 24.8638 28.1326 24.9257 28.1063C24.9875 28.08 25.0434 28.0415 25.09 27.993L32.449 20.362C32.539 20.2691 32.5893 20.1448 32.5893 20.0155C32.5893 19.8862 32.539 19.7619 32.449 19.669L25.058 12.007C25.0132 11.9569 24.9588 11.9163 24.8979 11.8878C24.8371 11.8592 24.7712 11.8431 24.704 11.8406C24.6368 11.8381 24.5699 11.8491 24.5071 11.8731C24.4443 11.897 24.3869 11.9334 24.3385 11.98C24.2901 12.0266 24.2516 12.0825 24.2252 12.1443C24.1989 12.2062 24.1853 12.2727 24.1853 12.3399C24.1852 12.4071 24.1987 12.4736 24.225 12.5355C24.2512 12.5974 24.2896 12.6533 24.338 12.7L31.394 20.015L24.37 27.299C24.3019 27.3696 24.2561 27.4587 24.2383 27.5552C24.2205 27.6517 24.2315 27.7513 24.2698 27.8416C24.3082 27.9319 24.3723 28.0089 24.4541 28.063C24.5359 28.1171 24.6319 28.146 24.73 28.146Z" fill="#999999"/>
<path d="M7.91 20.515H32.09C32.2226 20.515 32.3498 20.4623 32.4436 20.3686C32.5373 20.2748 32.59 20.1476 32.59 20.015C32.59 19.8824 32.5373 19.7552 32.4436 19.6614C32.3498 19.5677 32.2226 19.515 32.09 19.515H7.91C7.77739 19.515 7.65021 19.5677 7.55645 19.6614C7.46268 19.7552 7.41 19.8824 7.41 20.015C7.41 20.1476 7.46268 20.2748 7.55645 20.3686C7.65021 20.4623 7.77739 20.515 7.91 20.515Z" fill="#999999"/>
</svg>
