<svg width="28" height="28" viewBox="0 0 188 157" fill="none" xmlns="http://www.w3.org/2000/svg">
<path d="M188 78C188 79.5913 187.368 81.1174 186.243 82.2426C185.117 83.3679 183.591 84 182 84H20.49L82.24 145.76C82.8295 146.309 83.3023 146.972 83.6302 147.708C83.9582 148.444 84.1345 149.238 84.1487 150.044C84.1629 150.849 84.0148 151.65 83.713 152.397C83.4112 153.144 82.9621 153.823 82.3923 154.392C81.8226 154.962 81.1439 155.411 80.3968 155.713C79.6497 156.015 78.8494 156.163 78.0438 156.149C77.2382 156.135 76.4437 155.958 75.7077 155.63C74.9717 155.302 74.3093 154.83 73.76 154.24L1.76 82.24C0.636395 81.115 0.00527954 79.59 0.00527954 78C0.00527954 76.41 0.636395 74.885 1.76 73.76L73.76 1.76C74.8974 0.700158 76.4018 0.123175 77.9562 0.150601C79.5106 0.178026 80.9937 0.80772 82.093 1.90702C83.1923 3.00633 83.822 4.48941 83.8494 6.04382C83.8768 7.59823 83.2998 9.1026 82.24 10.24L20.49 72H182C183.591 72 185.117 72.6321 186.243 73.7574C187.368 74.8826 188 76.4087 188 78Z" fill="#999999"/>
</svg>
