<svg width="28" height="28" viewBox="0 0 188 156" fill="none" xmlns="http://www.w3.org/2000/svg">
<path d="M186.24 82.24L114.24 154.24C113.103 155.3 111.598 155.877 110.044 155.849C108.489 155.822 107.006 155.192 105.907 154.093C104.808 152.994 104.178 151.511 104.151 149.956C104.123 148.402 104.7 146.897 105.76 145.76L167.51 84H6C4.4087 84 2.88258 83.3679 1.75736 82.2426C0.63214 81.1174 0 79.5913 0 78C0 76.4087 0.63214 74.8826 1.75736 73.7574C2.88258 72.6321 4.4087 72 6 72H167.51L105.76 10.24C104.7 9.1026 104.123 7.59823 104.151 6.04382C104.178 4.48941 104.808 3.00633 105.907 1.90702C107.006 0.80772 108.489 0.178026 110.044 0.150601C111.598 0.123175 113.103 0.700158 114.24 1.76L186.24 73.76C187.364 74.885 187.995 76.41 187.995 78C187.995 79.59 187.364 81.115 186.24 82.24Z" fill="#999999"/>
</svg>
