<?xml version="1.0" encoding="UTF-8"?><svg id="Layer_1" xmlns="http://www.w3.org/2000/svg" viewBox="0 0 1080 1080"><defs><style>.cls-1{fill:#000;}</style></defs><g id="Wilo"><path class="cls-1" d="m77.75,344.05c1,30.34,5.09,60.25,17.48,89.13,15.77,36.78,45.65,50.68,82.2,54.64,29.92,3.24,56.2-7.22,81.27-22.98,17.46-10.98,35.66-21.48,54.81-28.89,29.96-11.59,52.22-3.28,68.19,24.67,8.61,15.07,14.78,31.78,20.26,48.34,10.21,30.88,26.84,57.1,51.82,77.92,44.83,37.37,103.46,40.25,150.3,5.5,15.94-11.83,30.33-26.69,42.57-42.4,26.61-34.15,42.42-73.96,54.99-115.12,18.95-62.05,26.47-125.99,32.48-190.25,4.85-51.94,45.4-83.97,96.51-75.01,35.65,6.25,63.81,25.73,74.7,61.16,13.3,43.26,4.47,82.8-30.67,114.07-14.09,12.54-28.55,24.66-42.75,37.06-16.17,14.12-31.97,28.63-42.22,47.95-17.24,32.48-7.58,68.85,23.38,88.5,17.32,10.99,36.44,17.09,56.62,19.24,21.01,2.24,41.59.51,59.54-12.54,13.66-9.93,18.8-24.93,12.33-40.57-3.73-9-9.38-17.36-15.06-25.38-18.47-26.11-18.81-43.23.65-68.73,11.43-14.98,24.44-28.76,35.91-43.72,56.86-74.21,53.79-179.18-21.75-241.94-32.49-26.99-69.87-41.27-112.63-35.73-49.12,6.36-83.36,34.13-103.53,78.44-12.52,27.52-22.51,56.21-33.11,84.57-16.76,44.84-33.32,89.75-58.03,131.02-12.54,20.94-26.87,40.53-46.6,55.48-43.07,32.64-95.76,21.05-120.56-26.89-6.42-12.42-11.21-25.69-16.72-38.58-7.75-18.12-14.15-36.98-23.55-54.21-12.14-22.25-32.57-30.36-57.62-27.04-17.36,2.3-33.33,8.83-45.16,21.3-20.18,21.27-38.99,43.86-57.95,66.25-15.69,18.52-29.91,38.35-46.46,56.04-8.93,9.55-20.55,17.55-32.41,23.18-21.42,10.15-42.18,1.84-53.61-18.95-7.36-13.38-7.52-27.66-4.48-41.93,5.88-27.55,23.21-47.94,43.47-66.1,20.72-18.56,42.12-36.37,62.62-55.16,18.47-16.93,32.06-37.1,37.68-62.11,8.04-35.76-4.98-66.14-36.21-80.9-29.18-13.8-55.4-6.26-78.96,13.64-16.85,14.24-29.17,32.15-39.27,51.56-26.88,51.69-38.6,107.16-40.48,165.48Zm337.78,294.5c-.03-55.39-26.48-95.09-78.74-113.42-20.19-7.08-42.02-11.06-63.41-12.86-44.44-3.73-87.83,2.49-129.28,20.1-19.36,8.23-27.2,23.43-27.15,43.21.05,19.07,10.49,32.41,27.6,38.88,15.68,5.93,32.21,9.89,48.65,13.42,22.54,4.85,43.54,12.68,61.07,27.95,20.88,18.19,25.15,39.98,12.51,64.56-4.05,7.88-8.86,15.88-15.12,22-15.49,15.14-31.3,30.14-48.31,43.51-22.33,17.55-46.28,33.03-68.9,50.24-19.5,14.84-35.79,32.75-46.49,55.25-26.62,55.95.74,108.81,61.75,118.94,32.39,5.38,63.35-1.43,94.14-10.87,51.12-15.67,101.94-32.68,153.77-45.58,48.47-12.06,95.81-5.77,138.96,21.97,5.56,3.58,11.89,6.36,18.23,8.25,19.95,5.96,35.03-2.91,39.35-23.37,1.48-7.04,2.1-14.73.99-21.79-10.74-68.13-78.16-114.36-150.75-104.45-30.55,4.17-52.77,22.81-72.75,44.68-10.78,11.8-21.28,23.87-32.47,35.27-20.11,20.49-43.8,25.65-71.1,16.14-36.82-12.82-46.69-47.43-19.96-75.91,12.57-13.39,27.67-24.59,42.46-35.67,27.85-20.87,57.04-40.01,80.54-66.2,29.2-32.54,44.01-70.57,44.44-114.24Z"/><path d="m77.75,344.05c1.88-58.32,13.6-113.79,40.48-165.48,10.09-19.41,22.41-37.32,39.27-51.56,23.56-19.9,49.78-27.44,78.96-13.64,31.22,14.76,44.24,45.14,36.21,80.9-5.62,25.01-19.21,45.18-37.68,62.11-20.5,18.79-41.91,36.59-62.62,55.16-20.27,18.16-37.6,38.55-43.47,66.1-3.05,14.27-2.88,28.54,4.48,41.93,11.43,20.79,32.19,29.1,53.61,18.95,11.86-5.62,23.48-13.63,32.41-23.18,16.55-17.69,30.77-37.52,46.46-56.04,18.96-22.39,37.77-44.98,57.95-66.25,11.83-12.47,27.8-19,45.16-21.3,25.05-3.32,45.48,4.79,57.62,27.04,9.4,17.23,15.8,36.08,23.55,54.21,5.51,12.89,10.29,26.16,16.72,38.58,24.8,47.94,77.48,59.53,120.56,26.89,19.72-14.95,34.06-34.54,46.6-55.48,24.72-41.27,41.28-86.19,58.03-131.02,10.6-28.36,20.59-57.05,33.11-84.57,20.17-44.31,54.41-72.09,103.53-78.44,42.77-5.53,80.14,8.74,112.63,35.73,75.54,62.76,78.6,167.73,21.75,241.94-11.46,14.96-24.47,28.74-35.91,43.72-19.46,25.5-19.13,42.61-.65,68.73,5.67,8.02,11.33,16.38,15.06,25.38,6.47,15.64,1.33,30.64-12.33,40.57-17.96,13.05-38.54,14.77-59.54,12.54-20.18-2.15-39.3-8.25-56.62-19.24-30.96-19.65-40.61-56.02-23.38-88.5,10.25-19.32,26.05-33.83,42.22-47.95,14.21-12.41,28.67-24.53,42.75-37.06,35.14-31.26,43.97-70.81,30.67-114.07-10.89-35.42-39.05-54.9-74.7-61.16-51.11-8.96-91.65,23.07-96.51,75.01-6.01,64.26-13.53,128.2-32.48,190.25-12.57,41.16-28.38,80.97-54.99,115.12-12.24,15.71-26.62,30.57-42.57,42.4-46.85,34.76-105.47,31.87-150.3-5.5-24.97-20.82-41.61-47.04-51.82-77.92-5.47-16.56-11.65-33.27-20.26-48.34-15.97-27.95-38.23-36.26-68.19-24.67-19.15,7.41-37.35,17.91-54.81,28.89-25.08,15.77-51.35,26.23-81.27,22.98-36.54-3.96-66.43-17.86-82.2-54.64-12.38-28.88-16.48-58.79-17.48-89.13Z"/><path d="m415.53,638.55c-.43,43.68-15.24,81.71-44.44,114.24-23.5,26.19-52.69,45.33-80.54,66.2-14.79,11.08-29.9,22.28-42.46,35.67-26.73,28.48-16.86,63.09,19.96,75.91,27.3,9.51,50.99,4.34,71.1-16.14,11.19-11.4,21.69-23.47,32.47-35.27,19.98-21.87,42.2-40.51,72.75-44.68,72.6-9.91,140.01,36.32,150.75,104.45,1.11,7.06.5,14.75-.99,21.79-4.31,20.47-19.4,29.34-39.35,23.37-6.35-1.9-12.67-4.68-18.23-8.25-43.15-27.73-90.49-34.03-138.96-21.97-51.83,12.9-102.65,29.92-153.77,45.58-30.79,9.43-61.74,16.24-94.14,10.87-61-10.13-88.37-62.99-61.75-118.94,10.7-22.49,26.99-40.41,46.49-55.25,22.62-17.21,46.57-32.69,68.9-50.24,17.01-13.37,32.82-28.37,48.31-43.51,6.26-6.11,11.07-14.12,15.12-22,12.64-24.58,8.37-46.37-12.51-64.56-17.53-15.27-38.53-23.1-61.07-27.95-16.43-3.53-32.97-7.5-48.65-13.42-17.11-6.47-27.56-19.81-27.6-38.88-.05-19.78,7.79-34.98,27.15-43.21,41.45-17.61,84.84-23.82,129.28-20.1,21.39,1.79,43.21,5.77,63.41,12.86,52.26,18.33,78.71,58.03,78.74,113.42Z"/><path d="m778.42,1003.15c-27.36.04-54.32-2.74-80.44-10.93-60.11-18.84-91.99-62.27-107.92-121.31-19.68-72.94-3.22-139.5,31.25-203.66,14.89-27.72,32.83-53.27,54.73-75.98,55.61-57.64,118.15-66.7,191.28-32.05,49.83,23.61,80.95,65.53,101.35,115.49,29.67,72.65,33.36,146.12-.52,218.28-30.27,64.46-81.07,102.07-153.42,107.75-12.1.95-24.21,1.61-36.32,2.41Zm-125.16-270.98c1.1,7.51,1.95,18.39,4.35,28.92,17.6,77.16,99.97,109.46,163.58,64.32,49.92-35.43,70.33-106.04,46.97-162.51-27.7-66.94-103.26-87.72-160.79-43.75-35.94,27.47-51.78,65.31-54.11,113.02Z"/></g></svg>